<svg width="58" height="36" viewBox="0 0 58 36" fill="none" xmlns="http://www.w3.org/2000/svg">
<g clip-path="url(#clip0_87_153)">
<path d="M24.2788 24.8264C24.204 24.9424 24.1293 25.0563 24.0546 25.1724C24.0119 25.1892 23.9563 25.2103 23.9328 25.1618C23.856 25.0078 23.8944 24.8306 23.9264 24.6913C23.9862 24.4339 23.5955 24.5732 23.6659 24.3516C23.9692 24.1006 24.2745 23.8495 24.5756 23.5963C24.8404 23.3727 25.1094 23.149 25.3635 22.9127C25.4575 22.8241 25.5429 22.706 25.2952 22.6743C24.8553 22.6195 24.4176 22.5477 23.9777 22.4781C23.7257 22.438 23.5293 22.5076 23.3478 22.6933C23.0552 22.9908 22.7413 23.2672 22.4381 23.5541C22.3356 23.6533 22.2075 23.6997 22.0879 23.6322C21.9726 23.5668 21.9918 23.4212 22.0239 23.3178C22.0751 23.1427 22.1498 22.9718 22.2353 22.8072C22.295 22.6912 22.2652 22.6047 22.1819 22.5309C22.0858 22.4465 22.0025 22.5245 21.9342 22.5794C21.821 22.668 21.7399 22.8009 21.5648 22.8431C21.5818 22.5098 21.8466 22.2524 21.7847 21.862C21.4601 22.1237 21.1719 22.3515 20.89 22.5857C20.8195 22.6448 20.7512 22.7566 20.6637 22.6722C20.574 22.5836 20.7085 22.514 20.7533 22.4444C20.8729 22.2566 21.0864 22.13 21.1206 21.8874C21.1292 21.8198 21.2829 21.7945 21.1847 21.6933C21.1078 21.6131 21.0138 21.6869 20.9626 21.7122C20.5099 21.9443 20.0465 22.168 19.6686 22.5161C19.2821 22.8705 19.3269 23.2756 19.786 23.5351C19.9761 23.6427 20.1896 23.7124 20.3925 23.801C20.4608 23.8305 20.5612 23.8347 20.5377 23.955C20.3967 24.0267 20.2601 23.9655 20.1298 23.9276C19.3483 23.6997 18.9746 23.1153 19.2009 22.4908C19.3184 22.1637 19.581 21.976 19.8757 21.8241C20.2793 21.6152 20.6914 21.4253 21.0886 21.208C21.4623 21.0033 21.6758 20.689 21.6694 20.2522C21.6694 20.1341 21.6459 20.0075 21.7868 19.9105C21.8253 20.0476 21.8616 20.1678 21.8915 20.2902C22.0239 20.8662 22.2929 21.3451 22.8396 21.6363C24.125 22.3199 25.419 22.3853 26.7173 21.6827C26.9608 21.5519 27.2277 21.4274 27.3857 21.132C27.0547 21.1236 26.7793 21.2185 26.4931 21.2565C25.402 21.4063 24.4197 21.1827 23.6446 20.362C23.2559 19.9505 23.0702 19.4653 23.2196 18.8197C23.4524 19.2733 23.478 19.7417 23.8282 20.0497C24.014 20.3409 24.2788 20.4843 24.629 20.4907C24.9749 20.497 25.2952 20.4126 25.6091 20.2797C25.9721 20.1235 26.0105 20.1468 26.081 20.5328C26.1109 20.7016 26.1814 20.8303 26.3693 20.8113C26.9138 20.7544 27.4519 20.67 27.9067 20.3261H27.911C28.2697 20.1636 28.5772 19.9358 28.8377 19.6446C29.0961 19.5222 29.2477 19.2543 29.5082 19.1425C29.6064 19.2796 29.3758 19.4421 29.5338 19.5244C29.6577 19.5876 29.7858 19.4442 29.9011 19.3767C30.326 19.1256 30.6314 18.7458 30.9709 18.3998C30.9859 18.3829 31.0008 18.3661 31.0158 18.3471C31.383 18.0411 31.7012 17.6867 32.0172 17.3322C32.2073 17.1191 32.2564 16.8681 32.0813 16.636C31.887 16.3765 31.603 16.4482 31.3403 16.5221C31.193 16.5622 31.2272 16.6592 31.319 16.7204C31.6884 16.9693 31.4151 17.0727 31.2143 17.1951C31.0072 17.3217 30.7531 17.3618 30.5759 17.5432C30.341 17.5791 30.1403 17.6951 29.9481 17.8238C29.9032 17.8196 29.8734 17.8386 29.8605 17.8808V17.8745C29.5061 17.9926 29.1751 18.1509 28.8762 18.3724C28.763 18.3766 28.6904 18.4462 28.6178 18.5201C28.511 18.5116 28.4491 18.5792 28.3936 18.653C28.3722 18.6657 28.3487 18.6762 28.3274 18.6889C28.0925 18.7817 27.8854 18.9167 27.6868 19.0686C27.6633 19.0665 27.6483 19.075 27.6398 19.0961C27.3366 19.2578 27.1173 19.3232 26.9821 19.2923C27.6377 18.6467 27.8832 17.807 28.1843 16.9947C28.1928 16.9546 28.1993 16.9166 28.2078 16.8765C28.3082 16.8006 28.3231 16.6803 28.3701 16.5748C28.6092 16.0368 28.8463 15.4967 29.0876 14.9608C29.2605 14.5768 29.5552 14.3321 29.978 14.254C30.3688 14.1823 30.5972 14.3658 30.5823 14.7582C30.5759 14.9756 30.5268 15.1929 30.4926 15.4081C30.4606 15.6043 30.42 15.7984 30.3794 16.022C30.5951 15.9609 30.6592 15.8195 30.7232 15.6887C30.9303 15.2646 31.0136 14.8152 31.0072 14.3468C30.9987 13.7709 30.4798 13.3658 29.931 13.5472C29.3694 13.7329 28.8847 14.1 28.5324 14.5452C27.8448 15.4102 27.4775 16.4546 27.059 17.4652H27.0611C26.8668 17.7247 26.6853 17.9947 26.4739 18.2374C26.2091 18.5391 25.9678 18.5327 25.6796 18.2479C25.7564 18.231 25.8141 18.1888 25.8525 18.1192C25.891 18.1065 25.9294 18.0918 25.97 18.0791C26.0895 18.0517 26.2177 18.0538 26.3223 17.9715C26.3479 17.961 26.3735 17.9525 26.3992 17.942C26.444 17.9378 26.476 17.9188 26.4824 17.8724H26.5017L26.5187 17.8681C26.9949 17.5158 27.0761 16.9588 27.2682 16.4609C27.3622 16.368 27.3707 16.2457 27.3836 16.1254C27.5266 15.9376 27.5779 15.7098 27.6483 15.4925C27.8704 14.8194 27.8683 14.8363 27.1551 14.9629C26.8156 15.0241 26.6661 15.1233 26.8519 15.4608C26.8583 15.4735 26.839 15.5009 26.8262 15.5431C26.5486 15.3427 26.5636 15.6591 26.4632 15.7689C26.3202 15.6824 26.3372 15.503 26.1942 15.4418C26.1728 15.4714 26.1493 15.4988 26.1365 15.5283C26.0127 15.8047 25.8525 16.0347 25.5023 16.041C25.1393 16.0495 24.9962 15.8111 24.9023 15.5199C24.8831 15.4629 24.8788 15.3912 24.8041 15.4186C24.7592 15.4334 24.7165 15.4946 24.6994 15.5431C24.5841 15.8659 24.8041 16.2837 25.1543 16.4187C25.2674 16.463 25.4041 16.4524 25.5109 16.5917C24.9386 16.7373 24.5286 16.4778 24.1378 16.1528C24.0994 15.9862 23.9798 15.8912 23.8197 15.9039C23.6723 15.9144 23.6745 16.0452 23.7065 16.1634C23.7044 16.2035 23.7001 16.2436 23.698 16.2837C23.6766 16.2837 23.6553 16.2879 23.636 16.3005C23.6254 16.2837 23.6104 16.2794 23.5933 16.29C23.2495 15.7984 23.1876 15.79 22.6538 16.1634C22.3207 16.3111 22.0794 16.56 21.8808 16.8554C21.821 16.8744 21.7954 16.9166 21.7911 16.9757H21.7975C21.7505 16.9862 21.7335 17.0158 21.7356 17.0601C21.5968 17.1951 21.4815 17.3449 21.4516 17.5453C21.2914 17.8259 21.1847 18.1234 21.1783 18.4483C21.0694 18.6488 21.0886 18.8682 21.0993 19.0813C21.1121 19.3366 21.0331 19.3914 20.8217 19.2374L20.7982 19.2248C20.6935 18.9252 20.4266 18.9378 20.1554 18.9378C20.2601 18.6593 20.6188 18.6403 20.6957 18.2796C20.1832 18.5665 19.7647 18.8576 19.3739 19.1889C19.3611 19.1847 19.3483 19.1889 19.3397 19.1994C19.3333 19.0644 19.4358 18.999 19.5234 18.9231C19.8287 18.6572 20.132 18.3914 20.4416 18.1276C20.7149 17.8956 20.9199 17.6234 20.9904 17.2668C21.0138 17.1445 21.0864 16.9926 20.9605 16.9145C20.858 16.8512 20.7512 16.9778 20.6594 17.0369C19.3782 17.8555 18.2699 18.8682 17.2663 19.997C16.5659 20.7839 15.9168 21.6089 15.4257 22.5456C15.0776 23.0689 14.7787 23.6132 14.5779 24.2061C14.2213 24.9255 14.0356 25.6956 13.8733 26.4741C13.7836 26.9024 13.7366 27.3349 13.4078 27.6746C13.2647 27.8223 13.2434 28.0248 13.254 28.2274C13.269 28.4806 13.2946 28.7338 13.2967 28.9869C13.2989 29.2739 13.4355 29.257 13.6277 29.1515C13.8989 29.0017 13.948 28.7506 13.9587 28.4721C13.9779 27.9848 14.0057 27.4995 14.0334 26.9341C14.2043 27.1197 14.2192 27.2716 14.2726 27.4046C14.3238 27.5354 14.3772 27.6999 14.5053 27.7295C14.6719 27.7674 14.6783 27.5501 14.7765 27.4636C14.7936 27.4489 14.8107 27.4362 14.8427 27.4088C14.9516 27.5459 15.0669 27.6894 15.2335 27.4657C15.5175 27.0881 15.8186 26.7231 16.0214 26.2927C16.141 26.2041 16.235 26.0965 16.2734 25.9488C16.3524 25.9045 16.4229 25.8517 16.425 25.7505C16.5062 25.6851 16.5873 25.6196 16.6684 25.5563C16.6684 25.6007 16.6642 25.645 16.662 25.6872C16.1602 26.8877 15.447 27.9679 14.5993 29.0397C15.3766 28.8097 15.8762 28.3097 16.9546 26.7779C16.7709 27.4046 16.3887 27.9215 15.9894 28.4299C15.5794 28.9511 15.0264 29.3161 14.5246 29.7422C15.5004 29.5671 16.0855 28.8181 16.8435 28.1852C16.4677 29.027 15.8207 29.5228 15.1481 29.9406C14.5032 30.3393 13.7324 30.4533 12.9679 30.4849C12.733 30.4933 12.5536 30.5102 12.5878 30.8225C12.3551 30.7064 12.1543 30.6136 11.9622 30.506C11.8746 30.4575 11.755 30.4026 11.7593 30.2866C11.7636 30.1579 11.8874 30.1051 11.9921 30.0524C12.1778 29.9596 12.3871 29.911 12.5494 29.7718H12.5835L12.6113 29.7528C12.9081 29.6621 13.0362 29.4448 13.0213 29.1599C13.0021 28.7992 12.9444 28.4426 12.9017 28.0839C12.9102 28.0628 12.9102 28.0438 12.8974 28.0248C12.8804 27.1155 12.6668 26.2357 12.4853 25.3517C12.4533 25.1196 12.2654 25.2188 12.1543 25.2188C10.8091 25.2124 9.46381 25.2167 8.11855 25.2188C7.77903 25.2188 7.43951 25.2188 7.1 25.2082C6.8886 25.2019 6.76048 25.2863 6.65371 25.472C6.18394 26.2906 5.74192 26.4678 4.83654 26.2167C4.72977 26.1872 4.57176 26.1366 4.61019 26.0015C4.65077 25.8665 4.78316 25.9699 4.87498 25.9846C5.04794 26.0121 5.21876 26.0585 5.39173 26.0669C5.97894 26.0965 6.30779 25.7441 6.36758 25.1365C6.43164 24.4761 5.86577 24.1111 5.36824 24.0858C4.8344 24.0584 4.42228 24.4592 4.40734 25.0057C4.3988 25.2652 4.40734 25.5268 4.40734 25.8454C3.96746 25.2884 4.04433 24.5922 4.53973 24.147C5.06075 23.6807 5.78676 23.687 6.27789 24.1639C6.35263 24.2356 6.45726 24.3031 6.48715 24.3938C6.65371 24.896 7.04021 24.9297 7.4929 24.9255C9.03675 24.9086 10.5827 24.915 12.1266 24.9255C12.3871 24.9255 12.4917 24.877 12.481 24.5901C12.4554 23.7567 12.7779 23.0077 13.1323 22.2798C13.6704 21.17 14.2598 20.0835 14.7936 18.9716C15.0477 18.442 15.2271 17.8787 15.4214 17.3238C15.5196 17.0411 15.7054 16.9567 15.983 16.9904C16.6108 17.0664 17.2386 17.0938 17.8706 17.0369C19.1369 16.9229 20.3519 16.6444 21.4943 16.0706C22.7883 15.4207 24.1507 14.9671 25.5749 14.6696C26.2646 14.5262 26.9351 14.3679 27.6483 14.4143C28.1352 14.446 28.4854 14.1274 28.8548 13.8616C29.2456 13.581 29.6128 13.2455 30.1595 13.2666C30.5054 13.2814 30.7595 13.4269 30.9709 13.6738C31.0243 13.7371 31.0414 13.8827 31.161 13.8088C31.2549 13.7519 31.1866 13.6337 31.1567 13.5535C30.8471 12.718 30.8599 11.8467 30.8513 10.9774C30.8278 8.79165 32.7454 6.73035 34.3298 6.25564C34.8252 6.10795 35.3291 6.01934 35.8459 6.00457C36.431 5.98769 36.8068 5.70287 37.0246 5.18385C37.2915 4.54457 37.5776 3.91373 37.9577 3.32931C38.6304 2.29971 39.5443 1.52963 40.6141 0.938874C41.5109 0.445174 42.4996 0.213093 43.5011 0.0253183C43.7893 -0.0274275 43.9474 0.0949426 43.9965 0.37344C44.1118 1.0296 44.0029 1.22159 43.3431 1.39038C42.4099 1.62879 41.5152 1.95581 40.7059 2.47905C39.335 3.36729 38.577 4.66905 38.1627 6.19868C38.0923 6.45396 38.0261 6.71136 37.9577 6.96876C37.8723 7.28735 37.6716 7.41605 37.3342 7.37807C36.6851 7.30634 36.0402 7.24515 35.3825 7.39284C33.1789 7.88654 31.9446 9.79382 32.1987 11.9712C32.3204 13.0198 32.7176 13.946 33.5098 14.6886C34.159 15.2984 34.9512 15.5663 35.8117 15.6718C36.147 15.714 36.4886 15.7246 36.8281 15.7246C41.8825 15.733 46.9368 15.7393 51.9912 15.7414C53.3855 15.7414 54.6091 15.3237 55.5508 14.254C56.0611 13.6738 56.3793 12.9987 56.5117 12.2497C56.7145 11.085 56.7316 9.92674 56.185 8.82963C55.3693 7.18818 54.0795 6.23243 52.1833 6.1607C51.8225 6.14804 51.4616 6.10162 51.1029 6.0531C50.8808 6.02356 50.7036 5.89908 50.6438 5.67544C50.5818 5.43703 50.7655 5.3231 50.9299 5.21128C51.3997 4.89902 51.9143 4.71758 52.4823 4.78509C54.3315 5.00451 55.8967 5.73662 56.9195 7.33798C57.7694 8.66717 58.126 10.1356 57.9808 11.7032C57.7843 13.8257 56.7636 15.4439 54.8696 16.4925C54.2162 16.8533 53.503 17.0031 52.7492 17.001C50.3747 16.9947 47.996 16.925 45.6236 17.0179C42.7366 17.1297 39.8518 17.0727 36.9669 17.0875C36.053 17.0917 35.1412 17.0137 34.2764 16.6887C32.9675 16.1972 31.9703 15.3596 31.351 14.1042C31.3254 14.0536 31.3019 13.9987 31.272 13.9523C31.2635 13.9396 31.2293 13.9396 31.1332 13.9185C31.3531 14.5515 31.1161 15.1254 31.0307 15.7182C30.9944 15.9714 31.193 16.1191 31.4151 16.195C31.6457 16.2731 31.8912 16.309 32.1219 16.387C32.6642 16.5727 32.8201 17.0875 32.3717 17.4441C31.7311 17.9546 31.2934 18.6108 30.8236 19.2501C30.5609 19.6087 30.2385 19.9062 29.8712 20.1594C29.5958 20.3493 29.3395 20.5582 29.1858 20.8746C28.9018 21.457 28.464 21.9106 27.9345 22.2903C27.1337 22.8663 26.3479 23.4613 25.5514 24.0457C25.4404 24.1259 25.3294 24.2145 25.1799 24.2187C24.7763 24.3221 24.377 24.5985 24.2873 24.8369L24.2788 24.8264Z" fill="url(#paint0_linear_87_153)"/>
<path d="M23.8432 25.6576C23.5207 26.0817 23.2026 26.5058 22.9335 26.9657C22.4915 27.7189 22.9228 28.6641 23.7919 28.8392C24.4389 28.9701 25.0368 28.7338 25.6454 28.5882C25.8376 28.5418 26.0276 28.5038 26.2582 28.4785C26.1856 28.7907 25.9849 29.0017 25.8632 29.2507C25.8162 29.3498 25.703 29.4574 25.8205 29.5587C25.9144 29.6389 26.0169 29.5397 26.1066 29.4933C26.5465 29.276 26.9052 28.9363 27.3216 28.6873C27.4391 28.6177 27.5651 28.5607 27.7124 28.4848C27.7914 28.7633 27.6334 28.989 27.6163 29.2317C27.5928 29.5692 27.6313 29.6135 27.9537 29.4912C29.158 29.0333 30.373 28.5924 31.4215 27.816C32.3204 27.3138 32.9397 26.5248 33.5675 25.7061C33.7212 25.9868 33.6849 26.2336 33.6337 26.4636C33.2173 28.3076 32.1112 29.6157 30.3986 30.4258C30.1509 30.544 29.8712 30.641 29.5232 30.5545C30.467 30.0229 31.4172 29.5777 32.0429 28.681C31.8656 28.6114 31.7781 28.7127 31.6884 28.7738C31.383 28.9848 31.0734 29.1895 30.798 29.4405C30.5118 29.6979 30.1979 29.9153 29.8136 30.0123C29.4271 30.1115 29.0641 30.2613 28.7075 30.4364C27.8106 30.8773 26.9415 31.3942 25.9208 31.5229C25.703 31.5504 25.4575 31.639 25.2696 31.5229C25.0945 31.4175 25.2824 31.2023 25.2439 31.0356C25.2311 30.9744 25.2653 30.8858 25.1713 30.8647C25.0859 30.8436 25.0475 30.9195 25.0155 30.9765C24.945 31.0968 24.8916 31.2255 24.8147 31.3415C24.3108 32.101 23.3777 32.2129 22.8075 31.5398C23.0595 31.6158 23.2752 31.6516 23.4951 31.6432C23.8282 31.6327 24.1079 31.504 24.3172 31.2444C24.6226 30.8647 24.55 30.6811 24.0695 30.5946C23.3627 30.468 22.6815 30.2718 22.0879 29.8583C21.9021 29.7275 21.8573 29.8055 21.8039 29.9617C21.6544 30.39 21.5669 30.8246 21.569 31.2845C21.5712 31.8204 21.7826 32.1918 22.2929 32.3922C22.4039 32.4365 22.5363 32.4618 22.5961 32.5968C22.2673 32.8226 21.9619 32.5399 21.5947 32.5251C22.073 33.1665 22.6623 33.3944 23.3755 33.3205C24.4496 33.2108 25.4724 32.8732 26.5038 32.5863C26.8647 32.485 27.2405 32.4154 27.5715 32.215C26.3266 32.139 25.1201 32.5357 23.8816 32.5019C24.0909 32.4281 24.3044 32.3816 24.5158 32.3226C26.397 31.812 28.306 31.5187 30.2663 31.6242C30.9602 31.6622 31.6286 31.7972 32.2713 32.0694C32.7176 32.2593 33.1148 32.5336 33.5312 32.791C33.5846 32.6623 33.5205 32.6011 33.4821 32.5357C33.2045 32.0483 32.7475 31.7782 32.2521 31.5525C31.7823 31.3373 31.2613 31.2972 30.7809 31.1157C30.7723 31.1136 30.7595 31.1221 30.7488 31.1242C30.751 31.1179 30.7531 31.1136 30.751 31.12C31.0115 31.1073 31.2677 31.0946 31.5603 31.0799C31.4001 30.833 31.1247 30.8246 30.9795 30.6368C31.0969 30.4701 31.2976 30.449 31.4535 30.3625C32.6365 29.6979 33.2258 28.6072 33.6743 27.4046C33.7703 27.1493 33.813 26.8644 34.0223 26.626C34.1077 26.8054 34.0885 26.9531 34.0543 27.0986C33.781 28.2527 33.292 29.3013 32.4528 30.1642C32.2543 30.3689 32.235 30.5102 32.4955 30.6748C33.181 31.1094 33.6828 31.7065 34.0501 32.4217C34.097 32.5125 34.1632 32.5947 34.2209 32.6791C34.5519 33.4408 34.727 34.2256 34.6159 35.059C34.601 35.1687 34.5946 35.2742 34.4665 35.2974C34.3341 35.3206 34.2743 35.2215 34.2529 35.1181C34.0906 34.3522 33.5782 33.8311 33.008 33.3458C32.9867 33.3268 32.8586 33.2762 33.008 33.2467C33.0401 33.2804 33.0806 33.2952 33.1127 33.2551C33.1212 33.2467 33.0934 33.2066 33.0828 33.1813C32.9418 32.8564 32.6194 32.7403 32.3439 32.5863C31.7845 32.274 31.1652 32.1918 30.4734 32.139C30.7232 32.4196 31.0734 32.3648 31.2976 32.5631C31.1866 32.6601 31.067 32.6264 30.956 32.6074C30.1424 32.4639 29.331 32.4829 28.5174 32.6074C28.4277 32.6222 28.3146 32.6032 28.2889 32.7192C28.2654 32.8226 28.3551 32.8817 28.4213 32.945C28.9701 33.4745 28.9658 33.464 28.2377 33.772C27.5629 34.0568 26.8924 34.3522 26.2155 34.6371C25.4639 34.9514 24.7528 34.8734 24.061 34.5252C23.5933 34.291 23.1065 34.1033 22.6218 33.9113C22.5043 33.8649 22.3634 33.8016 22.2652 33.9218C22.184 34.0231 22.2609 34.1434 22.3121 34.2467C22.5641 34.77 22.957 35.2004 23.2773 35.6772C23.3414 35.7721 23.414 35.8544 23.4353 36.0021C23.0125 35.9494 22.6666 35.751 22.3164 35.5844C21.2893 35.0949 20.3647 34.464 19.675 33.5463C19.4849 33.2931 19.2287 33.2171 18.9148 33.2024C17.672 33.1433 16.4955 32.8627 15.462 32.1285C15.1096 31.8774 14.8534 31.5314 14.5203 31.2634C14.3858 31.1115 14.1979 31.0904 14.0099 31.0672H14.0142C14.3644 30.9449 14.7295 30.852 15.0605 30.6896C16.3182 30.0798 17.0613 29.008 17.6528 27.8075C17.672 27.8012 17.6784 27.7885 17.672 27.7717C17.8407 27.5354 17.9432 27.2653 18.05 26.9995C18.1333 26.9109 18.1034 26.7189 18.319 26.7168C18.2763 27.4425 17.9689 28.0523 17.6251 28.6536C17.1638 29.4616 16.6791 30.2592 16.3161 31.12C16.1923 31.4132 16.1325 31.7339 16.3823 31.9597C17.0571 32.5715 17.8237 32.9766 18.7867 32.7973C18.9917 32.7593 19.1903 32.6855 19.2159 32.4281C19.3098 32.4745 19.3184 32.5736 19.359 32.6517C19.66 33.2361 20.0764 33.7256 20.5996 34.1265V34.1223C20.6039 34.1708 20.6359 34.1919 20.6807 34.194C20.7362 34.2552 20.7875 34.3185 20.8772 34.329C21.0843 34.6138 21.4217 34.675 21.7142 34.8143C21.6246 34.5653 21.4793 34.367 21.3107 34.1813C21.0074 33.6623 20.6871 33.1517 20.4843 32.5842C20.4779 32.4703 20.4715 32.3542 20.4672 32.2403C20.5334 32.2529 20.559 32.3015 20.5782 32.3584C20.8003 33.0441 21.1655 33.656 21.6117 34.2172C21.7548 34.3986 21.8722 34.6392 22.1883 34.6729C21.6758 33.9155 21.3 33.1011 21.0309 32.2382L21.0203 32.1686C20.9968 31.9323 20.9818 31.6938 20.8921 31.4702C20.8516 30.9069 20.9242 30.3541 21.0459 29.8055C21.1227 29.4616 21.2252 29.1241 21.3171 28.7844C21.4964 28.4785 21.569 28.1367 21.6651 27.8033C22.026 27.029 22.4317 26.28 22.9591 25.6007C23.1769 25.4023 23.2773 25.1281 23.4161 24.8791C23.4695 24.8432 23.5293 24.7694 23.572 24.7799C23.6553 24.7968 23.6318 24.8939 23.619 24.9529C23.5741 25.1597 23.5976 25.3285 23.8154 25.4361C23.9115 25.4825 23.8346 25.5796 23.8432 25.6534V25.6576Z" fill="url(#paint1_linear_87_153)"/>
<path d="M40.407 8.36125C40.3984 6.27674 42.2519 4.45385 44.4107 4.45807C46.4564 4.46229 48.4935 6.19657 48.4743 8.47729C48.455 10.6378 46.6763 12.3763 44.4406 12.3784C42.0384 12.3826 40.4176 10.7665 40.407 8.36125Z" fill="url(#paint2_linear_87_153)"/>
<path d="M45.5019 1.8883C45.5403 1.4178 45.5723 1.01694 45.6108 0.61396C45.6407 0.286937 45.8521 0.149798 46.1681 0.25107C47.7376 0.74266 49.1618 1.46422 50.2167 2.76599C50.3042 2.87359 50.3939 2.97908 50.4708 3.09512C50.6395 3.35252 50.5968 3.58671 50.3448 3.7576C49.9904 3.99812 49.6124 4.20278 49.2195 4.38C48.8821 4.53191 48.66 4.33781 48.4615 4.11628C47.8892 3.47911 47.2166 2.97697 46.4265 2.63518C46.245 2.55711 46.0613 2.48327 45.8756 2.41997C45.5809 2.3187 45.5147 2.08873 45.504 1.8883H45.5019Z" fill="url(#paint3_linear_87_153)"/>
<path d="M9.72433 23.0984C8.89368 23.0984 8.06517 23.09 7.23452 23.1026C6.96974 23.1068 6.79037 23.0119 6.64944 22.803C6.47007 22.533 6.27789 22.2735 6.10279 22.0013C5.94478 21.7544 5.73125 21.6363 5.4323 21.6426C4.91768 21.6511 4.4052 21.6553 3.89059 21.6447C3.61299 21.6405 3.44217 21.7376 3.32472 21.9992C3.04713 22.6216 2.38731 22.9359 1.81717 22.7587C1.12746 22.5435 0.736694 21.8452 0.922469 21.189C1.06554 20.6826 1.49474 20.2755 2.0542 20.248C2.66063 20.2185 3.09838 20.4189 3.27561 20.9822C3.35035 21.2207 3.53185 21.3662 3.82653 21.3599C4.38598 21.3515 4.94758 21.3789 5.50917 21.3789C5.87645 21.3789 6.1092 21.5498 6.29711 21.8494C6.48502 22.149 6.71137 22.4275 6.92703 22.7081C7.06583 22.8895 7.27723 22.8684 7.47368 22.8684C9.06237 22.8684 10.6532 22.8705 12.2419 22.8727C12.3124 22.8727 12.3828 22.8705 12.4511 22.8727C12.5088 22.8769 12.5793 22.8769 12.5899 22.9507C12.6028 23.0435 12.5195 23.0604 12.4533 23.0752C12.385 23.0879 12.3145 23.0857 12.244 23.0857C11.4027 23.0857 10.5614 23.0857 9.72005 23.0857V23.0984H9.72433ZM2.14388 22.5098C2.68626 22.5119 3.16671 22.0139 3.16671 21.4527C3.16671 20.9 2.66277 20.4316 2.07128 20.4295C1.52463 20.4295 1.11251 20.843 1.10611 21.4C1.09757 22.0287 1.54599 22.5098 2.14602 22.5119L2.14388 22.5098Z" fill="url(#paint4_linear_87_153)"/>
<path d="M6.84589 27.6008C7.12135 27.3814 7.43311 27.297 7.78971 27.3012C9.2396 27.3138 10.6895 27.3096 12.1394 27.3138C12.244 27.3138 12.3529 27.3075 12.4533 27.3286C12.7138 27.3835 12.5494 27.4594 12.4576 27.529C10.997 27.529 9.53641 27.5375 8.07584 27.5227C7.65945 27.5185 7.38613 27.6577 7.23666 28.0481C7.03166 28.5882 6.61741 28.8266 6.03873 28.8181C5.12694 28.8034 4.21729 28.7928 3.3055 28.7844C3.04499 28.7823 2.86989 28.6894 2.76313 28.4384C2.63714 28.143 2.47272 27.8624 2.32538 27.5755C2.21007 27.3518 2.04779 27.2168 1.7702 27.2484C1.59723 27.2674 1.42 27.2484 1.2449 27.2463C0.928873 27.2421 0.683309 27.3603 0.62352 27.6831C0.557325 28.0438 0.266919 27.9594 0.0661973 27.9447C-0.0768703 27.9341 0.0320319 27.7864 0.0875506 27.7063C0.30749 27.3835 0.318167 27.0438 0.166558 26.6935C0.162287 26.5501 0.196453 26.4868 0.33952 26.5986C0.424934 26.664 0.350197 26.8159 0.484723 26.8476C0.561595 26.7737 0.43134 26.6492 0.533836 26.5923C0.736693 26.702 0.7794 27.0121 1.08262 26.9573C1.46698 26.9615 1.85347 26.9742 2.23783 26.9657C2.47913 26.9594 2.6286 27.0564 2.73323 27.2674C2.8763 27.5565 3.04926 27.8307 3.19233 28.1198C3.32259 28.3856 3.50622 28.5143 3.82225 28.5038C4.47567 28.4848 5.13122 28.4764 5.78249 28.5038C6.20742 28.5228 6.4658 28.3477 6.63663 27.9911C6.70069 27.8582 6.77115 27.7274 6.83948 27.5944L6.84589 27.6008Z" fill="url(#paint5_linear_87_153)"/>
<path d="M8.67587 30.3161C8.8531 30.1579 8.92784 29.9342 9.04956 29.7422C9.14778 29.5861 9.26309 29.4532 9.45527 29.4532C10.3179 29.4469 11.1806 29.449 12.0433 29.4532C12.1202 29.4532 12.1949 29.4933 12.3081 29.5249C12.1821 29.6937 12.0219 29.66 11.8874 29.66C11.234 29.6642 10.5806 29.6684 9.92718 29.6536C9.53428 29.6452 9.24174 29.7549 9.12643 30.1579C8.30432 31.4639 8.74634 31.2529 7.15338 31.2634C6.24159 31.2698 5.3298 31.2698 4.41801 31.2529C4.05073 31.2466 3.80517 31.3689 3.63648 31.7044C3.29482 32.3838 2.39371 32.5842 1.74884 32.1812C1.35167 31.9344 1.18938 31.1769 1.28547 30.7782C1.39651 30.314 1.78941 29.9575 2.28481 29.8815C2.89979 29.7887 3.39305 29.9912 3.65997 30.5355C3.84361 30.909 4.09558 31.0187 4.49061 31.0124C5.54333 30.9934 6.59392 31.0039 7.64664 31.006C8.33635 31.006 8.39401 30.9723 8.67374 30.314L8.67587 30.3161ZM2.46845 32.1285C3.08556 32.1285 3.54039 31.7128 3.54039 31.1453C3.54039 30.5693 3.08129 30.1157 2.50261 30.1199C1.8855 30.1241 1.44776 30.5419 1.4563 31.1221C1.46271 31.7023 1.89191 32.1285 2.46845 32.1285Z" fill="url(#paint6_linear_87_153)"/>
<path d="M12.5366 29.7612C12.5472 29.7211 12.5643 29.7043 12.5985 29.7422L12.5707 29.7612H12.5366Z" fill="url(#paint7_linear_87_153)"/>
<path d="M21.7868 16.9715C21.7655 16.9989 21.7463 17.0284 21.7249 17.0559C21.7228 17.0115 21.742 16.982 21.7868 16.9715Z" fill="url(#paint8_linear_87_153)"/>
<path d="M23.6873 16.2794C23.6809 16.3343 23.6638 16.3512 23.6254 16.2963C23.6446 16.2837 23.6638 16.2773 23.6873 16.2794Z" fill="url(#paint9_linear_87_153)"/>
<path d="M33.0806 33.1813C33.0913 33.2066 33.1191 33.2467 33.1105 33.2551C33.0785 33.2931 33.0379 33.2804 33.0059 33.2467C33.0315 33.2256 33.055 33.2024 33.0806 33.1813Z" fill="url(#paint10_linear_87_153)"/>
<path d="M20.5953 34.1244C20.6231 34.1476 20.6508 34.1729 20.6786 34.1961C20.6316 34.1919 20.6017 34.1708 20.5953 34.1244Z" fill="url(#paint11_linear_87_153)"/>
<path d="M14.0078 31.0672C13.9907 31.0735 13.9736 31.0799 13.9587 31.0862C13.9758 31.0799 13.995 31.0757 14.0121 31.0693L14.0078 31.0672Z" fill="url(#paint12_linear_87_153)"/>
<path d="M22.0153 26.01C22.2118 25.9066 22.2972 25.6766 22.5086 25.5901C22.5363 25.5796 22.5748 25.5964 22.6346 25.6049C22.1968 26.2631 21.6288 26.8117 21.3043 27.5248C21.2359 27.5438 21.2167 27.5966 21.2146 27.6598C21.1719 27.7485 21.1313 27.8371 21.0886 27.9278C20.9477 28.067 20.8921 28.2443 20.8601 28.432C20.6743 28.8139 20.5547 29.2211 20.4074 29.6663C20.448 28.8203 20.7619 28.1029 21.1142 27.4003C21.3619 26.9066 21.6822 26.4551 22.0132 26.0121L22.0153 26.01Z" fill="url(#paint13_linear_87_153)"/>
<path d="M18.208 19.8936C18.0842 19.9442 18.0222 20.0497 17.9689 20.1636C17.45 20.7797 16.9311 21.3958 16.4165 22.0139C16.3887 22.0456 16.3887 22.1005 16.3759 22.1448C16.3417 22.1785 16.3097 22.2123 16.2755 22.246L16.252 22.2629C16.1602 22.3494 16.0663 22.4338 15.9744 22.5203C16.0876 21.881 17.5247 20.0581 18.2422 19.6446C18.3319 19.7417 18.1845 19.8071 18.208 19.8936Z" fill="url(#paint14_linear_87_153)"/>
<path d="M21.1633 24.0542C21.0501 24.0542 20.984 24.0668 20.9583 23.9993C20.9306 23.9297 20.9925 23.8896 21.0395 23.8664C21.1932 23.7862 21.3491 23.706 21.5092 23.6427C21.5883 23.6111 21.695 23.4634 21.7633 23.6216C21.8125 23.7356 21.774 23.8769 21.6139 23.9233C21.4473 23.9719 21.2808 24.0225 21.1633 24.0563V24.0542Z" fill="url(#paint15_linear_87_153)"/>
<path d="M19.8074 31.7635C19.8373 31.9934 19.8672 32.2213 19.8971 32.4513C19.8843 32.4639 19.8821 32.4787 19.8907 32.4935C19.5618 32.1559 19.5938 31.7318 19.5981 31.3141L19.5896 31.2951C19.6003 31.2634 19.6109 31.2339 19.6216 31.2044C19.6323 31.1727 19.6344 31.1263 19.6558 31.1136C19.7284 31.0672 19.7177 31.1516 19.722 31.1727C19.754 31.3689 19.7818 31.5673 19.8095 31.7635H19.8074Z" fill="url(#paint16_linear_87_153)"/>
<path d="M16.7282 30.9027C16.8692 30.9427 16.8756 31.0841 16.9225 31.1938C16.9503 31.2592 16.9439 31.3668 16.8606 31.3542C16.6898 31.3309 16.7069 31.1495 16.6449 31.0335C16.6129 30.9723 16.6535 30.9259 16.7261 30.9005L16.7282 30.9027Z" fill="url(#paint17_linear_87_153)"/>
<path d="M20.4181 32.2276C20.4224 32.1475 20.4266 32.0694 20.4309 31.9892C20.4437 32.0757 20.4544 32.1622 20.4672 32.2487C20.4544 32.2318 20.4373 32.2255 20.4159 32.2276H20.4181Z" fill="url(#paint18_linear_87_153)"/>
<path d="M19.6195 31.2065C19.6088 31.236 19.5981 31.2677 19.5874 31.2972C19.5661 31.2571 19.5832 31.2276 19.6195 31.2065Z" fill="url(#paint19_linear_87_153)"/>
<path d="M16.2777 22.2439C16.3118 22.2102 16.3439 22.1764 16.378 22.1426C16.3759 22.2059 16.3417 22.2397 16.2777 22.2439Z" fill="url(#paint20_linear_87_153)"/>
</g>
<defs>
<linearGradient id="paint0_linear_87_153" x1="4.10625" y1="15.406" x2="58" y2="15.406" gradientUnits="userSpaceOnUse">
<stop stop-color="#016CE7"/>
<stop offset="0.17" stop-color="#017CE7"/>
<stop offset="0.43" stop-color="#018EE7"/>
<stop offset="0.71" stop-color="#019AE7"/>
<stop offset="1" stop-color="#019EE7"/>
</linearGradient>
<linearGradient id="paint1_linear_87_153" x1="14.0078" y1="30.3921" x2="34.6501" y2="30.3921" gradientUnits="userSpaceOnUse">
<stop stop-color="#016CE7"/>
<stop offset="0.17" stop-color="#017CE7"/>
<stop offset="0.43" stop-color="#018EE7"/>
<stop offset="0.71" stop-color="#019AE7"/>
<stop offset="1" stop-color="#019EE7"/>
</linearGradient>
<linearGradient id="paint2_linear_87_153" x1="40.407" y1="8.41821" x2="48.4743" y2="8.41821" gradientUnits="userSpaceOnUse">
<stop stop-color="#016CE7"/>
<stop offset="0.17" stop-color="#017CE7"/>
<stop offset="0.43" stop-color="#018EE7"/>
<stop offset="0.71" stop-color="#019AE7"/>
<stop offset="1" stop-color="#019EE7"/>
</linearGradient>
<linearGradient id="paint3_linear_87_153" x1="45.5019" y1="2.32503" x2="50.5712" y2="2.32503" gradientUnits="userSpaceOnUse">
<stop stop-color="#016CE7"/>
<stop offset="0.17" stop-color="#017CE7"/>
<stop offset="0.43" stop-color="#018EE7"/>
<stop offset="0.71" stop-color="#019AE7"/>
<stop offset="1" stop-color="#019EE7"/>
</linearGradient>
<linearGradient id="paint4_linear_87_153" x1="0.877627" y1="21.6743" x2="12.5964" y2="21.6743" gradientUnits="userSpaceOnUse">
<stop stop-color="#016CE7"/>
<stop offset="0.17" stop-color="#017CE7"/>
<stop offset="0.43" stop-color="#018EE7"/>
<stop offset="0.71" stop-color="#019AE7"/>
<stop offset="1" stop-color="#019EE7"/>
</linearGradient>
<linearGradient id="paint5_linear_87_153" x1="1.83429e-06" y1="27.6809" x2="12.5963" y2="27.6809" gradientUnits="userSpaceOnUse">
<stop stop-color="#016CE7"/>
<stop offset="0.17" stop-color="#017CE7"/>
<stop offset="0.43" stop-color="#018EE7"/>
<stop offset="0.71" stop-color="#019AE7"/>
<stop offset="1" stop-color="#019EE7"/>
</linearGradient>
<linearGradient id="paint6_linear_87_153" x1="1.25985" y1="30.9195" x2="12.3081" y2="30.9195" gradientUnits="userSpaceOnUse">
<stop stop-color="#016CE7"/>
<stop offset="0.17" stop-color="#017CE7"/>
<stop offset="0.43" stop-color="#018EE7"/>
<stop offset="0.71" stop-color="#019AE7"/>
<stop offset="1" stop-color="#019EE7"/>
</linearGradient>
<linearGradient id="paint7_linear_87_153" x1="12.5366" y1="29.7401" x2="12.6006" y2="29.7401" gradientUnits="userSpaceOnUse">
<stop stop-color="#016CE7"/>
<stop offset="0.17" stop-color="#017CE7"/>
<stop offset="0.43" stop-color="#018EE7"/>
<stop offset="0.71" stop-color="#019AE7"/>
<stop offset="1" stop-color="#019EE7"/>
</linearGradient>
<linearGradient id="paint8_linear_87_153" x1="21.7249" y1="17.0137" x2="21.7868" y2="17.0137" gradientUnits="userSpaceOnUse">
<stop stop-color="#016CE7"/>
<stop offset="0.17" stop-color="#017CE7"/>
<stop offset="0.43" stop-color="#018EE7"/>
<stop offset="0.71" stop-color="#019AE7"/>
<stop offset="1" stop-color="#019EE7"/>
</linearGradient>
<linearGradient id="paint9_linear_87_153" x1="23.6275" y1="16.3048" x2="23.6873" y2="16.3048" gradientUnits="userSpaceOnUse">
<stop stop-color="#016CE7"/>
<stop offset="0.17" stop-color="#017CE7"/>
<stop offset="0.43" stop-color="#018EE7"/>
<stop offset="0.71" stop-color="#019AE7"/>
<stop offset="1" stop-color="#019EE7"/>
</linearGradient>
<linearGradient id="paint10_linear_87_153" x1="33.0059" y1="33.2298" x2="33.1127" y2="33.2298" gradientUnits="userSpaceOnUse">
<stop stop-color="#016CE7"/>
<stop offset="0.17" stop-color="#017CE7"/>
<stop offset="0.43" stop-color="#018EE7"/>
<stop offset="0.71" stop-color="#019AE7"/>
<stop offset="1" stop-color="#019EE7"/>
</linearGradient>
<linearGradient id="paint11_linear_87_153" x1="20.5953" y1="34.1602" x2="20.6786" y2="34.1602" gradientUnits="userSpaceOnUse">
<stop stop-color="#016CE7"/>
<stop offset="0.17" stop-color="#017CE7"/>
<stop offset="0.43" stop-color="#018EE7"/>
<stop offset="0.71" stop-color="#019AE7"/>
<stop offset="1" stop-color="#019EE7"/>
</linearGradient>
<linearGradient id="paint12_linear_87_153" x1="13.9587" y1="31.0757" x2="14.0121" y2="31.0757" gradientUnits="userSpaceOnUse">
<stop stop-color="#016CE7"/>
<stop offset="0.17" stop-color="#017CE7"/>
<stop offset="0.43" stop-color="#018EE7"/>
<stop offset="0.71" stop-color="#019AE7"/>
<stop offset="1" stop-color="#019EE7"/>
</linearGradient>
<linearGradient id="paint13_linear_87_153" x1="20.4074" y1="27.6261" x2="22.6324" y2="27.6261" gradientUnits="userSpaceOnUse">
<stop stop-color="#016CE7"/>
<stop offset="0.17" stop-color="#017CE7"/>
<stop offset="0.43" stop-color="#018EE7"/>
<stop offset="0.71" stop-color="#019AE7"/>
<stop offset="1" stop-color="#019EE7"/>
</linearGradient>
<linearGradient id="paint14_linear_87_153" x1="15.9766" y1="21.0793" x2="18.2742" y2="21.0793" gradientUnits="userSpaceOnUse">
<stop stop-color="#016CE7"/>
<stop offset="0.17" stop-color="#017CE7"/>
<stop offset="0.43" stop-color="#018EE7"/>
<stop offset="0.71" stop-color="#019AE7"/>
<stop offset="1" stop-color="#019EE7"/>
</linearGradient>
<linearGradient id="paint15_linear_87_153" x1="20.9519" y1="23.801" x2="21.7826" y2="23.801" gradientUnits="userSpaceOnUse">
<stop stop-color="#016CE7"/>
<stop offset="0.17" stop-color="#017CE7"/>
<stop offset="0.43" stop-color="#018EE7"/>
<stop offset="0.71" stop-color="#019AE7"/>
<stop offset="1" stop-color="#019EE7"/>
</linearGradient>
<linearGradient id="paint16_linear_87_153" x1="19.5896" y1="31.7972" x2="19.8949" y2="31.7972" gradientUnits="userSpaceOnUse">
<stop stop-color="#016CE7"/>
<stop offset="0.17" stop-color="#017CE7"/>
<stop offset="0.43" stop-color="#018EE7"/>
<stop offset="0.71" stop-color="#019AE7"/>
<stop offset="1" stop-color="#019EE7"/>
</linearGradient>
<linearGradient id="paint17_linear_87_153" x1="16.6364" y1="31.1305" x2="16.9396" y2="31.1305" gradientUnits="userSpaceOnUse">
<stop stop-color="#016CE7"/>
<stop offset="0.17" stop-color="#017CE7"/>
<stop offset="0.43" stop-color="#018EE7"/>
<stop offset="0.71" stop-color="#019AE7"/>
<stop offset="1" stop-color="#019EE7"/>
</linearGradient>
<linearGradient id="paint18_linear_87_153" x1="20.4181" y1="32.1179" x2="20.4693" y2="32.1179" gradientUnits="userSpaceOnUse">
<stop stop-color="#016CE7"/>
<stop offset="0.17" stop-color="#017CE7"/>
<stop offset="0.43" stop-color="#018EE7"/>
<stop offset="0.71" stop-color="#019AE7"/>
<stop offset="1" stop-color="#019EE7"/>
</linearGradient>
<linearGradient id="paint19_linear_87_153" x1="19.5789" y1="31.2508" x2="19.6195" y2="31.2508" gradientUnits="userSpaceOnUse">
<stop stop-color="#016CE7"/>
<stop offset="0.17" stop-color="#017CE7"/>
<stop offset="0.43" stop-color="#018EE7"/>
<stop offset="0.71" stop-color="#019AE7"/>
<stop offset="1" stop-color="#019EE7"/>
</linearGradient>
<linearGradient id="paint20_linear_87_153" x1="16.2777" y1="22.1933" x2="16.3759" y2="22.1933" gradientUnits="userSpaceOnUse">
<stop stop-color="#016CE7"/>
<stop offset="0.17" stop-color="#017CE7"/>
<stop offset="0.43" stop-color="#018EE7"/>
<stop offset="0.71" stop-color="#019AE7"/>
<stop offset="1" stop-color="#019EE7"/>
</linearGradient>
<clipPath id="clip0_87_153">
<rect width="58" height="36" fill="white"/>
</clipPath>
</defs>
</svg>
